<svg viewBox="0 0 58 71" fill="#f43" xmlns="http://www.w3.org/2000/svg">
	<g filter="url(#filter0_d_1082_34412)">
		<path
			d="M29.5107 55.5229C29.4984 55.7898 29.2785 56 29.0112 56C28.7215 55.9999 28.5015 55.7897 28.4893 55.5228C28.3446 52.3546 26.7341 50.3058 23.6577 49.3763C13.5314 46.9677 6 37.8634 6 27C6 14.2975 16.2975 4 29 4C41.7025 4 52 14.2975 52 27C52 37.8634 44.4686 46.9677 34.3423 49.3763C31.2659 50.3058 29.6553 52.3546 29.5107 55.5229Z" />
	</g>
	<path
		d="M37.6719 21.3773V18.375C37.6719 17.9602 37.3367 17.625 36.9219 17.625H21.0781C20.6633 17.625 20.3281 17.9602 20.3281 18.375V21.3773C19.9367 21.4008 19.625 21.7266 19.625 22.125V25.2117C19.6235 25.779 19.7384 26.3406 19.9625 26.8617C20.0633 27.1008 20.1875 27.3258 20.3281 27.5391V35.625C20.3281 36.0375 20.6633 36.375 21.0781 36.375H36.9219C37.3367 36.375 37.6719 36.0398 37.6719 35.625V27.5391C37.8147 27.3252 37.9371 27.0985 38.0375 26.8617C38.2602 26.3391 38.375 25.7836 38.375 25.2117V22.125C38.375 21.7266 38.0633 21.4008 37.6719 21.3773ZM22.0156 19.3125H35.9844V21.375H22.0156V19.3125ZM30.5 34.6898H27.5V32.25H30.5V34.6898ZM35.9844 34.6898H32V31.5C32 31.0852 31.6649 30.75 31.25 30.75H26.75C26.3352 30.75 26 31.0852 26 31.5V34.6898H22.0156V29.0133C22.0836 29.0461 22.1539 29.0789 22.2266 29.107C22.7492 29.3273 23.3047 29.4375 23.8766 29.4375C24.4485 29.4375 25.0016 29.3273 25.5266 29.107C25.85 28.9711 26.1547 28.7977 26.4336 28.5891C26.4383 28.5867 26.443 28.5867 26.4477 28.5891C26.7274 28.7985 27.0321 28.9725 27.3547 29.107C27.8774 29.3273 28.4328 29.4375 29.0047 29.4375C29.5766 29.4375 30.1297 29.3273 30.6547 29.107C30.9781 28.9711 31.2828 28.7977 31.5617 28.5891C31.5664 28.5867 31.5711 28.5867 31.5758 28.5891C31.8556 28.7985 32.1602 28.9725 32.4828 29.107C33.0055 29.3273 33.561 29.4375 34.1328 29.4375C34.7047 29.4375 35.2578 29.3273 35.7828 29.107C35.8531 29.0766 35.9235 29.0461 35.9938 29.0133V34.6898H35.9844ZM36.6875 25.2117C36.6875 26.6133 35.5391 27.75 34.1258 27.75C33.1695 27.75 32.3352 27.232 31.8945 26.4633C31.8266 26.3461 31.7047 26.2734 31.5688 26.2734H31.5547C31.4211 26.2734 31.2969 26.3461 31.2289 26.4633C31.0041 26.8554 30.6794 27.1811 30.2879 27.4071C29.8964 27.6331 29.4521 27.7514 29 27.75C28.0461 27.75 27.2141 27.2344 26.7735 26.468C26.7031 26.3484 26.5766 26.2734 26.4383 26.2734C26.3 26.2734 26.1711 26.3484 26.1031 26.468C25.877 26.8586 25.5519 27.1828 25.1606 27.4079C24.7693 27.6329 24.3256 27.7509 23.8742 27.75C22.461 27.75 21.3125 26.6133 21.3125 25.2117V23.0742C21.3125 23.0672 21.3172 23.0625 21.3242 23.0625H36.6758C36.6828 23.0625 36.6875 23.0672 36.6875 23.0742V25.2117Z"
		fill="white"/>
	<g filter="url(#filter1_d_1082_34412)">
		<path
			d="M29 66C31.2091 66 33 64.2091 33 62C33 59.7909 31.2091 58 29 58C26.7909 58 25 59.7909 25 62C25 64.2091 26.7909 66 29 66Z"
			fill="white"/>
	</g>
	<path fill-rule="evenodd" clip-rule="evenodd"
				d="M29 64C27.8954 64 27 63.1046 27 62C27 60.8954 27.8954 60 29 60C30.1046 60 31 60.8954 31 62C31 63.1046 30.1046 64 29 64Z" />
	<defs>
		<filter id="filter0_d_1082_34412" x="0" y="0" width="58" height="64" filterUnits="userSpaceOnUse"
						color-interpolation-filters="sRGB">
			<feFlood flood-opacity="0" result="BackgroundImageFix"/>
			<feColorMatrix in="SourceAlpha" type="matrix" values="0 0 0 0 0 0 0 0 0 0 0 0 0 0 0 0 0 0 127 0"
										 result="hardAlpha"/>
			<feOffset dy="2"/>
			<feGaussianBlur stdDeviation="3"/>
			<feColorMatrix type="matrix" values="0 0 0 0 0.0941176 0 0 0 0 0.105882 0 0 0 0 0.133333 0 0 0 0.4 0"/>
			<feBlend mode="normal" in2="BackgroundImageFix" result="effect1_dropShadow_1082_34412"/>
			<feBlend mode="normal" in="SourceGraphic" in2="effect1_dropShadow_1082_34412" result="shape"/>
		</filter>
		<filter id="filter1_d_1082_34412" x="21" y="55" width="16" height="16" filterUnits="userSpaceOnUse"
						color-interpolation-filters="sRGB">
			<feFlood flood-opacity="0" result="BackgroundImageFix"/>
			<feColorMatrix in="SourceAlpha" type="matrix" values="0 0 0 0 0 0 0 0 0 0 0 0 0 0 0 0 0 0 127 0"
										 result="hardAlpha"/>
			<feOffset dy="1"/>
			<feGaussianBlur stdDeviation="2"/>
			<feComposite in2="hardAlpha" operator="out"/>
			<feColorMatrix type="matrix" values="0 0 0 0 0.0941176 0 0 0 0 0.105882 0 0 0 0 0.133333 0 0 0 0.3 0"/>
			<feBlend mode="normal" in2="BackgroundImageFix" result="effect1_dropShadow_1082_34412"/>
			<feBlend mode="normal" in="SourceGraphic" in2="effect1_dropShadow_1082_34412" result="shape"/>
		</filter>
	</defs>
</svg>
